function data()
return {
	subMeshes = {
		{
			indices = {
				normal = {
					count = 29172,
					offset = 165412,
				},
				position = {
					count = 29172,
					offset = 107068,
				},
				tangent = {
					count = 29172,
					offset = 194584,
				},
				uv0 = {
					count = 29172,
					offset = 136240,
				},
			},
		},
	},
	vertexAttr = {
		normal = {
			count = 20688,
			numComp = 3,
			offset = 39404,
		},
		position = {
			count = 16452,
			numComp = 3,
			offset = 0,
		},
		tangent = {
			count = 46976,
			numComp = 4,
			offset = 60092,
		},
		uv0 = {
			count = 22952,
			numComp = 2,
			offset = 16452,
		},
	},
}
end
