function data()
return {
	subMeshes = {
		{
			indices = {
				normal = {
					count = 32184,
					offset = 183632,
				},
				position = {
					count = 32184,
					offset = 119264,
				},
				tangent = {
					count = 32184,
					offset = 215816,
				},
				uv0 = {
					count = 32184,
					offset = 151448,
				},
			},
		},
	},
	vertexAttr = {
		normal = {
			count = 24540,
			numComp = 3,
			offset = 43732,
		},
		position = {
			count = 18852,
			numComp = 3,
			offset = 0,
		},
		tangent = {
			count = 50992,
			numComp = 4,
			offset = 68272,
		},
		uv0 = {
			count = 24880,
			numComp = 2,
			offset = 18852,
		},
	},
}
end
